<svg id="Layer_1" xmlns="http://www.w3.org/2000/svg" viewBox="0 0 85 85"><style>.st1{opacity:.33}.st2{fill:#010101}</style><path d="M69.7 51.9c0-3.4 1.8-5.8 1.8-9.3 0-1.7-.5-3.3-.4-5 .3-5.8-1.1-12.2-2.8-18C65.9 11 56.4.8 46.9.3v.3H46V.3c-7.4 0-12.3-.2-18.1 5-4.7 4.2-7.5 7.8-8.5 14.2-.3 1.9-1.3 14 .4 14 .2 3.6-.6 8.8 1.7 11.7 0-.1-.1-.1-.1-.2-.5.9-.4 1.8.2 2.6.6-.8.6-1.6.1-2.3 0-.9.1-1.8.3-2.7 3.6 2.4-1.2 18.8-4.2 21.9-3.2 3.3-6.6-1.5-9.1-3.9-3-3-3.3-5.1-7.3-6.9C3.5 70.9 23.8 84.1 39.3 85c9.8.6 19.9-2.4 27.8-8.3 2.5-1.9 4.9-4.1 7-6.4 2.5-2.7 10-11.6 8.2-15.4-1.2-.3-5.7-1.1-6.9-.4-2.9 1.7-.2 3.9-1.5 5.8-.5.8-1.3 2-2.5 1.2-1.7-1.2 1-2.9.9-4.1-.3-2.5-2.6-3-2.6-5.5M22.1 28.5c-.6-1.3-.2-4-.1-5.3 0-.7 0-1.4.1-2 .8 0 1-2.6 2.8-2.9.8 1.2-2.3 9.6-2.8 10.2z" opacity=".33" fill="#010101"/><g class="st1"><path class="st2" d="M69.5 51.9c0-2.5.4-5 0-7.2v-.2c0-.2-.1-.3-.1-.5s-.1-.4-.2-.6c-.3-1.1-.8-2.1-1.7-3.1-.1.5-.1 1.3 0 2.2l.3 7.2v.2c-.1.1-.1.2-.2.3-.4.4-1.9.3-3.6 0-1.1-.5-2.1-1.1-3.2-1h-.4c-.4-.2-.7-.4-.7-.5-.1-.2 0-.5 0-.7l.1-.1c1.7-1.5 1.7-2.7 1.2-3.8 0-.2 0-.3-.1-.5-.2-.9-1.3-1.9-2-3-.3-.5-.6-1.1-.9-1.8v-.4c.1-1.3 1.1-1.8 2.1-2.2.4 0 .8.1 1.2.2.2 0 .6-.6.7-.9v-.4c.4-.7.2-1.8-1.5-4-1.1-1.4-6.9-6-8.6-6.5-3.2-1-4.9.5-2.7-3.1.6-.1 1.1-.4 1.5-.9.6-1.2.6-2.4.2-3.6.5-2.1-.2-2.1 1.7-3.3 1.4-.8 3-.7 4.6.1.8.6 1.6 1.3 2.4 1.6.1.1.3.2.4.4.6.8 1.4 1.6 2 2.4.4.6.7 1.1.9 1.7.2.6.4 1.2.6 1.9.1 2-.1 4 .9 5.7.2 1.3.4 2.6.8 3.8.4 1.3 3.5 11.2 4.7 11.1 1.8-.9.5-9 .3-9.8-.8-3.1-2.2-5.7-2.7-9-.5-2.7-.7-5.7-2.4-8-.4-.6-1-1-1.5-1.4-.2-.2-.5-.4-.7-.5-.5-.4-1-.7-1.4-1.2-1-1.5-1.5-3.4-3-4.6-.2-.2-.6-.4-1-.5-.9-.6-1.9-1-3.1-1.2h-.2c-1.1-.5-1.4-1.1.4-1.8-.5-.4-1.1-.8-1.7-1.1-.2-.2-.5-.4-.9-.5-1.2-.5-2.5-.9-3.7-1.2L47.1 1c-.4 0-.8-.1-1.2-.1-.4-.1-.9-.3-1.3-.4-2.1.4-4.1.9-6.3 1.2.1 1.3-.6 1.3-1.6.7l-.1.1C34.4 1.7 31.3 4 29.2 6h-.5c-.2.2-.4.4-.6.5 0 .1-.1.3-.1.4v.2c-.2.2-.4.4-.5.6-2.8 3.3-5.8 7.8-7.3 11.5-.1.3-.4.8-.6 1.3l-.1.1v.1c-.5 1.2-.9 2.6.2 3.4.1.1.2.1.3.1.1.1.3.1.5-.1 1-.7 1.8-3.9 2.3-4.8.4-.9 1-2.1 1.7-3 .2-.2.3-.4.5-.6.7-.7 1.6-1 2.8-.3.3.2.5.4.7.6l.1.1c.6.9.3 2.1-.1 3.3-.5.8-.5 1.6-.3 2.3 0 .2.1.4.1.6.7 1.9 3.1 3 5 2.7-.6.4-1.3.5-1.9.6-2.2-.3-3.5.3-4.4 1.4-.2.2-.5.5-.7.8-.9 1.2-1.8 4.4-2.3 5.9-.3 1-.5 1.6-.6 2.2-1 .9-.2 1.7 0 2.4s.5 1.8 1.6 1.7l.1.1c.2.3 1.3.2 1.8 1.1.6 1-1.2 2.4.4 2.8-3 3.1-2.8 7.3-3.6 11.2-.4-.8-.7-1.6-1-2.5-.4 1-.5 2.2-.7 3.3-.1.5-.2 1.1-.2 1.6-.1.5-.2 1-.5 1.5-.1.1-.2.2-.4.3h-.1c-.3.1-.7.3-.9.6 0 .1-.1.1-.1.2-.1 0-.1.1-.2.1l-.3 1.5c-.1.4-.3.9-.5 1.2-.3.6-.7 1.6-1.2 2.4-.1.2-.3.4-.4.5-.2.2-.4.3-.7.5-.1.1-.3.1-.4.2-1.6.3-3.2-1.6-4.4-2.4-.1 0-.1-.1-.2-.1-.8-1.9-2.7-1.8-4.3-2.4-.4-.2-.7-.5-1-.7v-.2c.4-.4.7-.8.1-1.3 0-.1-.1-.2-.1-.2-.1-.6-.2-1.1-.4-1.6 0-.6-.3-1.1-.9-1.5-.1-.2-.3-.3-.4-.4-.1-.2-.3-.3-.5-.3-.6-.4-1.4-.6-2.4-.5 1 1.9 1.7 3.8 2.6 5.7.1.3.3.7.4 1 .1.1.1.3.2.4 0 0 0 .1.1.1.6 1.3 1.2 2.5 2 3.7.3.4.6.7.9 1.1.2.3.5.6.7.9.2.2.3.4.5.7.5 0 .9.1 1.4.2 4.7 2.2 12 1.5 16.5 1.6.2.5 0 .9-.3 1.2-.6.1-1.5-.1-1.7.5-.8.1-1.7 0-2.6-.1-.8-.8-1.9-.5-3-.4-.6-.1-1.1-.2-1.3-.2-2.1-.2-4.2-.4-6.3-.5h-.3c-.3 0-.7-.1-1-.1C19.2 80.4 31.9 86 45 85c5.9-.5 17.8-2.9 22.2-8.4v-.1c.2-.3.4-.5.6-.8l.3.3c2-2 4.2-3.9 6.1-6 2.1-2.4 9.4-11.3 7.7-14.8-1.4-.2-5.4-1-6.6-.3-1 .6-1.3 1.1-1.4 1.7-.1.2-.1.4 0 .7 0 .1 0 .2.1.2 0 .2.1.5.2.7 0 .7-.1 1.3-.1 2 0 .1-.1.2-.1.3-.6 1-2.1 2.5-3.1.8-.5-.8 0-1.5.4-2.3.3-.3.5-.7.6-1.1.1-.3.2-.6.2-.9-.1-2.3-2.6-2.7-2.6-5.1M28.7 9.2c-.9.5-.7.6-1.2.1.5-.8.9-.7 1.5-.2-.1 0-.2.1-.3.1zM19 74.1l-1.7-.3c.2-.2.3-.3.5-.3.3 0 .6.1.9.1.3.1.7.3 1.3.4l-1 .1zm9.9-.9zm9.5-28.1c-.4.7-2.2 1.2-3 1.4.1-.2 1.3-1.9 2.3-2.5.3-.1.6-.1.8-.1.1 0 .1.1.2.2.1.4 0 .7-.3 1zm3.4-.2s-.1 0 0 0v-1.7c.1-.6.1-1.2.2-1.7.2-1 .5-1.7 1.1-1.7.3.1.6.2 1 .4.2.1.4.3.6.5.8.8.5 1.6.4 2.4v.1c-.4.9-.1 1.2.3 1.2l.1.1c.3.3 1.7.1 2.4.8l-6.1-.4zm13 8.7c0 .1-.1.1-.1.2-.2-.1-.5-.2-.7-.3-1-1.3-2.5-1.6-4-1.9-.6-.3-1.3-.5-2-.8.9-1.5 2.3-1.5 3.7-.8 1 .8 2 1.7 2.9 2.6.2.4.3.7.2 1zm13.5 4.2c.2.5 1 .1.5.9-.6 0-.8-.2-.5-.9zM69.4 71c-.4 1.2-.9 2.3-1.5 3.4-2.6-.8-1.2-4.8-.1-5.2-.2-.6-.1-2.9 1-2.9.7 1.5 1.1 3.1.6 4.7z"/><path class="st2" d="M21.1 29.6l-.2-.2c0-.2 0-.4-.1-.6 0 0-.4-.1-.5 0l-.2.2c-.7.3-.3 3.3-.2 4.4 1 1.1.4 2.3 1 3.7.1.3.2.4.4.4 0 0 .1-.1.1-.2.1-.1.2-.3.2-.4 0-.3 0-.6-.1-.9.2-2.1 0-5.9-.4-6.4z"/></g><g class="st1"><path class="st2" d="M19.1 73.1c1-.1 1.9-.4 2.9-.6v-.3c-.9-.2-1.9-.3-2.8-.5-.2-.1-.5-.2-.7-.3h-.4l-1.5-.3c-.3 0-.6 0-.9-.1-.5 0-1-.1-1.5-.1l-2.4-.3-.1-.1h-.3c-.3 0-.7-.1-1-.1.5.8 1.2 1.4 1.9 1.8l.1.1h.2c1.9 1 4.4.8 6.5.8zM69.6 36.7c0 .9 0 1.8.2 2.7h.3c.6-2.2.3-4.9-.9-6.9-.1.2-.2.4-.2.6-.5.9.1 1.7.5 2.4 0 .4.1.7.1 1.2zM20.7 20.9c.1.2.3.3.6.3 1.6 0 1.6-2.7 2.1-3.7.4-.8 1.4-2.4 2.5-3.5.3-.3.7-.5 1.1-.8.2-.1.4-.3.6-.3.3-.1.6-.2 1-.1.6.1 1.1.6 1.6 1.3.2.4.5.8.8 1 .1.1.2.3.3.4.6.7 1.1 1.3 1.6 1.7 1.2 1.4 2.5 2.5 5.1.5.3-.1.7-.2 1-.3 2.6-.8 5.2-.4 7.7-1.7 2.5-1.3 4.3-4.4 7.3-4.2.5 0 1 .2 1.5.4.3.2.6.3.9.5 3.1 1.9 5.7 6.6 8.4 6.5l.1-.3c-.6-.3-.9-.9-1.2-1.6-.2-.8-.3-1.8-1-2.3-.1-.2-.3-.4-.4-.5.2 0 .2-.1.3-.1.3 0 .5-.1.3-.7-.3-.2-.6-.5-.9-.7-.2-.1-.3-.3-.5-.4-.5-.5-1.1-1-1.7-1.4-1.6-1.5-3.4-2.9-3.7-3.1-.2-.1-.3-.2-.5-.3-.3-.3-.6-.7-.9-1.1-.6-.3-1.1-.4-1.5-.4h-.4c-1.3-.4-2.7-.5-4.7-.5 0-.3.8-.5 1.6-.6.3 0 .6-.1.9-.1.1 0 .2-.1.2-.1.2-.1.4-.1.5-.2-3-.2-5-3.1-8.1-2.3.2.2.4.4.6.5-.5-.3-1-.5-1.6-.6-.2-.2-.3-.4-.5-.6-.7.1-1.3.1-2 .2h-1.4c.1 1.3-.6 1.3-1.6.7l-.1.1c-2.2-.8-5.3 1.4-7.5 3.5h-.4c-.2.2-.4.4-.6.5 0 .1-.1.3-.1.4v.2c-.4.5-.8.9-1 1.2 0 .1-.2.4-.4.7l-.1.1c-.7 1-1.6 2.4-2.5 3.9l-.1.1v.1c-.9 1.5-1.8 3-2.4 4.3-.2.1-.3.2-.5.3-.2.6-.4 1.2-.7 1.8-.1.8.1 1.1.4 1.3zM45.4 3.5c.9.6 1.7 1.2 1.4 2.2-.5-.1-1-.3-1.5-.5.1-.8-.1-1.4-.5-1.9.2.1.4.2.6.2zM27.7 9.2c.9-.8.7-.7 1.3-.2-.6.3-1 .9-1.5.3l.2-.1z"/><path class="st2" d="M82 54.9c-2.2-.2-4.5-.8-6.2-.1h-.6c-.7.6-1.5 1.1-1.4 2.2 0 .1-.1.2-.1.2-.5 1.9.9 4.2-1.9 4.6.4 1.9-.6 2.7-2.3 2.3.2 1.3 1.1 2.3 2.4 2.7-.5 1-1.2.9-1.8.3-.3-.4-.6-.9-.9-1.3-.5-1.1-.7-2.4-.1-2.9.1.4.3.7.6 1 .2 0 .3-.2.3-.5.1-.3 0-.8-.2-1.3-.3-1.3-1-3-1-3.5-.3-.1-.6.3-.9-.1-.1-.1-.1-.3-.1-.6 0-.1.1-.2.1-.3.1-.7.1-1.3.2-2s.3-1.3.3-1.6c-.3.6-.5 1.2-.7 1.7-.5 1.1-.9 2.2-.9 3.4 0 .2-.1.3-.1.5l-1.8-1.4c.3 1.2-.5.7-1.1 1.4-.6-1.6.4-1.5.3-2.5v-.3c.7-1.2.1-1.8-1-2.6-.1-.1-.2-.1-.3-.1 0-.1-.1-.1-.1-.2-.3-.4-.8-.9-1.3-1.4-.3-.3-.6-.6-1-.8-.8-.6-1.6-1.1-2.3-1.6-.9-.6-4.4-3.4-7.1-5.2l-.9-.9c-.6-.7-1.7-1.6-2.9-.7.1.3.1.6.2.9l.1.1c.1.5.4 1.1.9 2-.2-.1-.4-.1-.7-.2h-.1c-.6-.4-1.1-.4-1.5 0-1.6.1-3.2.5-4.1-1.2-.2 0-.4 0-.6.1-.3 0-.6 0-.8.1-1.7.3-3.4.9-5 1.5 2.2-1.8 2.6-4.8 3.4-7.4 2.7-8.4 3.4-2.2 7.7.5 1 .7 4.3 1.9 5.5 1.6.1 0 .2-.1.3-.1 1.2.1 1.4-.7 1.6-1.6.2-.6.4-1.3.9-2.1 0-.1.1-.1.1-.2.5-.1.8-.3.8-.7 1-.6 2.3-.6 3.4-1.1.6-.3 1.1-.6 1.5-1.3-.2-.1-.6-.2-.9-.4-.1 0-.1-.1-.2-.1s-.2 0-.4-.1c-.4-.1-.8-.2-1.2-.4H58h-.1c-.4-.1-.9-.3-1.3-.4-.1-.1-.3-.2-.4-.2-.1 0-.1 0-.2-.1-.7-.4-1.3-.8-1.4-1.3.4-.2.8-.4 1.3-.6h.1c1.1-.3 2.1-.6 1.6-1.4 0-.4-.5-.9-1.8-1.5-2.1-1.1-6.4.5-8.7.3h-.2c-1.8-.9-3.3-.2-4.9 0-1.1.1-2.1.7-3.1 1.1-1.1.2-2.3.2-3.4.1-.2 0-.4-.1-.6-.1-.1-.2-.1-.5-.3-.6-.6-.8-1.2-.5-1.8-.2-.5-.1-1-.2-1.6-.2 0 .1.1.2.2.3 0 0-.1 0-.1-.1-.4 1.3.2 1.1.8.9.3.3.5.6.4 1.4-1.4.1-4-.4-5.1-.2-1.7.4-2.2.8-2.3 1.4-.1.1-.2.2-.3.4.1.6.1 1.2.3 1.8v.3c.4.2.6.4.9.8-.3.7-.7 1.3-1.1 1.9v.2l-.4.4c-.7.5-1.9.7.9 1.9.2.1 2.1-.5 2.5-.7.7 1.4 1.2 3 2.3 4 .2.1.3.3.5.4.2.1.5.2.8.3 3.1.8 6.4-3.1 2.9 1.9-2.3 3.2-6.1 4.9-8.2 8.1-.2.3-.4.7-.6 1-.2.2-.3.5-.5.7-.3.4-.3.7-.2 1.1-.3 1-.4 2-.2 2.7l-.3-.3c-.2-.6-.1-1.6-1.2-1-.1.1-.1.2-.1.5-.6.6.1 3.4-1.1.8-.8.3-1.4.8-1.7 1.4-.1.1-.2.1-.4.2-.1.5-.2.9-.3 1.4-.3 1-.5 2-1.2 2.9-1.4 1.7-1.7 2.2-4 1.5-1.5-.4-2.1-2.4-3.2-3.2-1.4-1-3.4-.9-4.7-2V61c.4-.4.7-.8.1-1.3 0-.1-.1-.2-.1-.2-.1-.6-.2-1.1-.4-1.6 0-.6-.3-1.1-.9-1.5-.1-.2-.3-.3-.4-.4-.1-.2-.3-.3-.5-.3-.6-.4-1.4-.6-2.4-.5 1.7 3.5 2.6 7.6 5.1 10.7.3.4.6.7.8 1 .1.1.1.2.2.3.2.3.5.6.7.9.2 0 .5.1.7.1.7.3 1.7.4 3.6.5 2.7.1 5.5-.2 8.3-.1 1.1.1 3.3.9 4.8.8h.2c.4 0 .7-.1.9-.3.4 1.4-.2 2.2-1.1 2.7-.4 0-.8.1-.9.4-.7.3-1.5.4-2.2.6v.9c-1.5.3-6.6.3-6.5 2.4 0 3 13.5 7.2 16.1 7.8 6.8 1.6 13.4 1.3 19.8-.4l3.3-.9c1.1-.4 2.1-.8 3.2-1.2l.6-.3c1.3-.5 2.6-1.1 3.9-1.8-.4-.4-.1-1.7.5-3.3.2-.3.4-.6.7-.9.1-.3.1-.6.2-.8.1-.3.2-.6.3-.8.5-1.2 1.1-2.4 1.3-3l.8.4c0-.2 0-.3.1-.5.1-.1.1-.3.2-.4v-.1c.2-.3.4-.5.8-.5-.2-.6-.1-2.9 1-2.9 1 2.5-.9 6.3-.9 8.4 0 .1-.1.3-.1.4l.2.2c0 .1.1.3.2.4 2.4-2.4 5.1-4.6 7.2-7.3.1-.1.1-.2.2-.2C77.3 66 83.5 58 82 54.9zM28.9 73.2zM31.7 57c-.1-.1-.1-.1 0-.2l.1.1-.1.1zm19 10.1l-.9.6c-.3.1-.5.2-.7.3-1.4.5-1.9-.4-3.8-.6-.9-.1-2.7.5-4.4.8-.7 0-1.4-.1-2.1-.1-.4-.2-.7-.5-.8-1-.1-.8 1.5-1.6 3.5-2.4 1.7-.3 3.3-.5 5-.8.9-.2 1.8-.5 2.7-.9h.3c.6.1 1.3.7 1.8 1.3.1.6.3 1.1.3 1.7-.1.3-.4.7-.9 1.1zm4.1-13.5c0 .1-.1.1-.1.2-.2-.1-.5-.2-.7-.3-1-1.3-2.5-1.6-4-1.9-.6-.3-1.3-.5-2-.8.9-1.5 2.3-1.5 3.7-.8 1 .8 2 1.7 2.9 2.6.2.4.3.7.2 1zM64.8 26.5c.1.4.2.8.3 1.1v.3l.3 1.2c.1 0 .3 0 .4.1.5.7 1.2 1.2 2.1 2.6v-.7c.1-.7-.2-1.3-.6-1.9-.2-.4-.3-.8-.5-1.2-.4-1.1-.4-2.8-1.6-2.8-.2 0-.4.1-.4.4-.1-.1-.1.2 0 .9zM20.4 33.3c0 .2 0 .2.1.3.1.5.2.9.3 1.1.2-.2.3-.4.4-.7l.2-.2v-.3c.2-.9.1-2-.2-3l-1.4.5c0 .2 0 .4.1.6.1.2.3.9.5 1.7z"/></g><g class="st1"><path class="st2" d="M65.5 68c.3-1 .5-1.9.4-2.6l-.1-.2c-1.1 1.8-2.7 1.4-4.2.4-.2-.1-.4-.3-.6-.4-.7-.6-1.4-1.2-1.9-1.8-1.8-1.9-2.4-4.4-4.3-6.1-.3-.2-.6-.4-.8-.6-1.2-.9-2.7-1.4-4.8-.9-.1 0-.2-.1-.3-.1-1.9-.9-1-2-2.2-3.3l-.1-.1c-.3-.9-1-1.1-1.8-1.3-.6-.3-1.2-.5-1.9-.9-.1 0-.3-.2-.5-.3-.4-1.3-1.3-1.4-2.2-1.4-1.4-.8-2.9-1.6-3.6-1.2-.2.1-.4.2-.5.3l-.1.1-.2.2-.1.1c-.2.5.1 1.2.7 1.7 0 0 0 .1.1.1.1.1.2.1.3.2.4.3.8.6 1.2.8.9.4 2.5-2.3 2.7 0v.4c-.1.2-.3.4-.5.6-.5.3-1.2.2-1.2.2.1-.2-.1-.2-.4-.1-.3-.2-.6-.4-.9.1l-.2.2c-.1 0-.2.1-.2.1-.1.1-.8 2.4-1.4 3-.1.1-.3.3-.5.4-.7.2-1.3.4-1.9.8-.2.1-.4.3-.6.4-1 .9-1.5 1.8-1.8 2.8-.4.9-.6 1.9-.5 2.7v.2c-.1 1-.8 5.3-.4 6.1-.3-.4-.4-1.4-.5-2-1.3.5-1.8 1-1.9 1.6-.1.2-.3.5-.3.8.1.2.2.5.4.7l.1.1c0 .1.1.2.1.3.1.2 4.9 5.4 1.8 4.3-.7-.3-1.1-2.9-2.2-2.9-1.4 0-2.2 4.6-2.6 5.6H25c.2-1.5 1-3.6 1-4.7.1-.2.2-.4.2-.6l-.1-.1c-.1 0-.2 0-.4.1-.3-.3-1.1-.2-2.4.6l.8.6c-1.6 0-3.1 1.1-4 1.6-.1 0-.1.1-.2.1-.4-.1-.9-.2-1.2.1-.5.4-1.2.7-1.3 1.4.1.1.2.1.3.2.1.6 1.4 1.2 3.9 2.7 10.6 6.1 22.8 7 34.4 3.3-.1 0-.2-.1-.2-.1-.1-.3-.4-.3-.7-.3-1.5-1 1.4-2.5 3.3-3.4.2 0 .4-.1.6-.1.2-.1.3-.1.5-.2v-.2c.1 0 .2-.1.2-.1 1-.5 2-1.1 2.8-1.8.1-.1.3-.2.4-.3v-.1c.6-.6 1.2-1.2 1.6-1.9h.3c.1-.3.2-.5.2-.8.1-.2.3-.5.4-.7-.5-.3-.6-.8-.5-1.6.4-.7.5-1.8.6-2.8zm-16.7 2.6c-.3.2-.5.3-.9.4-.8.2-1.5-.8-2.3-.7-2.2.3-4.2.8-6.4.4-.2 0-.3-.1-.5-.1-.3-.2-.6-.5-.9-.8-.1-.2-.4-.2-.8-.2-.2-.1-.5-.1-.8-.1 2.2-3.3-2.7-6.6.7-9.7.2-.2.6-.4.9-.6.4-.1.7-.2 1.2-.3.3-.1.6-.2 1-.4.6-.1 1.3-.2 1.9-.3.9-.1 1.7-.2 2.3-.2 1.1-.1 3-.2 4.6 0 .3.1.6.1.9.2.5.1 1.1.3 1.6.5.3.2.6.4.8.6.3.3.6 1.1.9 2.1v.3c-.1.8-.1 1.6.5 2.3.1 1.1 0 2-.3 2.2-1.7 1-2.5 3.2-4.4 4.4 0-.1 0-.1 0 0zm-8.4 10.7c-1-.4-5-2.2-4.4-3.6.9.6 5.4 2.2 4.4 3.6zm-.2-26.2l2.8-.7.5.4c-1.3.6-1.9 1-3.3.3zM73.8 69.2c0-.1 0-.1 0 0-.3-.6-.7-1.2-1.6-1.7 0 1.8-.8 2.8-2.5 1.2 0 1.9-1.6 4.2-1.7 5.9 0 .2-.1.3-.1.5.1.1.2.1.2.2s.1.2.1.3c1.5-1.4 4.9-3.5 5.5-5.5l.3-.3c-.1-.1-.1-.4-.2-.6zM42.9 48.6s.1 0 0 0c.2 0 .5-.2.7-.4h.5v.1c.2 0 .4.1.6.1.5.2 1.1.4 1.6 0 .1 0 .1-.1.2-.1.5.1 1 .1 1-.9 0-.4-.2-.6-.4-.8-.3-.5-1-.7-2.3-.2-.6.6-1.4 1.1-2.2 1.3.1.2.1.3.1.4.1.3.1.4.2.5zM30.7 10.6c1.4-1.5 1.7-.7 2.2.1 0 .5.3.7.6.8.1.1.2.2.4.2 2.3 1.2 7.4 1.6 9.8 1.2 1.1-.2 5.1-1.8 5.6-2.9.1-.1.1-.2.1-.4.5-.6.6-1.1-.1-1.2-.8-1-3.4-.9-5.1-1.3-.7-.2-1.4-.3-2.1-.5-1.9-.5-3.9-.8-6-.3-.8.1-1.7.3-2.6.6.4.4.7.6 1.1.7.1.1.2.1.3.2.6.2 1.3.3 1.9.3.4.2.8.5 1 1.2-.3-.1-.9-.2-1.7-.3-1-.3-2.1-.5-3.2-.4-1.9-.1-3.4.2-2.4 1.9l.2.1zM36 4.3c.2.5.3 1 1 1.1h.1c.5.4 1 .5 1.1-.2.1-.5-.8-.7-1.2-.7.5-.2.9-.1 1.2-.3.1 0 .1-.1.1-.1.1 0 .1-.1.2-.2-.9-.2-1.9-.4-2.7-.4-.1.1-.1.2-.3.1.1.1.1.2-.1.3h.3c.1.1.2.2.3.4zM27.2 38.9c.5 0 .9-.2 1.2-.6 2.2 2 4.8 2.1 6.9 1.3h.3c1.5-.1 2.2-1.1 2.9-2.1.1-.4.2-.7.4-1.1v-.3c.3-1.5-.4-3.2-3-4.3-1.1-.5-5.2-.8-6.4.1-.1 0-.1.1-.2.1-.5 0-.9.1-.9.7 0 .5.4.7.9.9.6.2 1.6.5 2.3 1-1.5 1-3.4 1.3-5.2 1.8.1.4 0 .9-.5.9v.1h-.1c-.2.2.2 1 .7 1.6l.7-.1zm4.7-.6c-.8 0-1.7-.3-2.2-.7.1-.1.2-.1.2-.1v-.1.1c1.2.1 2.4.1 3.6.2-.2.3-.5.4-.8.5-.2.1-.5.1-.8.1zM42.6 32c-.9 1.6.5 3.5 2.1 4.7.1.2.2.3.3.5l.5.5h1.1c.2.1.4.1.6.1 2.3.2 2.8-.1 2.8-.5v-.1c0-.1-.1-.2-.1-.3-.1-.2-.2-.3-.3-.5-.2-.5-.3-1-.4-1.5.1-.2.2-.3.5-.4.1.3.3.5.5.7.5.6 1 .7 1.6.6 2 .3 4.7-.3 6-.8-.3-.7-.7-1.1-1.2-1.5 0-.1-.1-.1-.1-.2-.1 0-.2 0-.3-.1-1.8-.9-4.4-.7-6.2-.8 1.2-.9 1.9-1.6 2.1-2l.1-.1c.1-.1.2-.3.1-.4-.1-.1-.2-.1-.3-.1-.9-1.4-8.5.6-9.4 2.2zM79.8 57.4h-.2c-.4 1.3-1.4 2.6-1.9 4-.1 0-.1.1-.2.1v.3c-.2.7-.2 1.3 0 2-.4-.2-.7-.5-1-.8-.2-.5-.5-.9-.7-1.4h-.2c-.5-.5-1.1-.5-2.4 1.2.6 1.2-.4 2-1.6 2.7h-.2l-.4.4c-.2.1-.3.2-.5.3l5 2.3c2.6-3.3 4.6-7 6-10.9l-1.7-.2zM8.4 62.9c-1.1-.4-2.5-.7-3.8-.9.5-1.1.9-2 1.1-2.8 0-.1.1-.2.1-.3 0-.1 0-.2-.1-.2 0-.8-.2-1.6-.9-2.5l-3-.7L4.6 62c.9 1.5 1.5 2.7 2.2 3.5.1.1.2.3.3.5.2.1.4.1.6.2.9.4 2 .5 3.8.1-.1-1.9-1.5-2.8-3.1-3.4z"/><path class="st2" d="M23.2 67.3h3.1c-.9-1.2-2.3-6.6-4.5-6.5h-.1c-.2 0-.3 0-.5.1 0 .1-.1.1-.1.2-.1 0-.1.1-.2.1v-.7c-1.3-.4-1.8.3-1.7 1.8l.6.3c-.7 1.4-1.7 2.7-2.8 3.8 2 .7 4.1.9 6.2.9zM43.7 59.3c-.4 0-.8.1-1.2.2-.9 0-1.7.1-1.8 1.1-.5.6-.4 1.4.7 2 .5.4 1.1.7 1.9.6h.1c.1 0 .2 0 .3-.1.4-.1.8-.3 1.1-.6.5-.3.8-.8.9-1.1v-.6c-.1-.7-.7-1.5-2-1.5zM55.6 11.1c1.1.8 3.6 4 5.4 4.3.3.1.5.1.7-.1.4-.2.5-.5.3-.8v-.1c0-.1-.1-.3-.1-.4-1.1-1-2-2.1-3.3-2.8-1.1-.6-2.4-.7-3.7-1 0 0-.2.2-.2.3h-.2c.5.2.8.4 1.1.6z"/></g></svg>